<svg width="68" height="66" viewBox="0 0 68 66" fill="none" xmlns="http://www.w3.org/2000/svg">
<path fill-rule="evenodd" clip-rule="evenodd" d="M0 10.5C0 10.5 0 0 8.5 0H59.5C59.5 0 68 0 68 10.5V42C68 42 68 52.5 59.5 52.5H42.5C42.5 56.0018 42.8527 58.6268 43.5625 60.375H46.75C47.3136 60.375 47.8541 60.6516 48.2526 61.1438C48.6511 61.6361 48.875 62.3038 48.875 63C48.875 63.6962 48.6511 64.3639 48.2526 64.8562C47.8541 65.3484 47.3136 65.625 46.75 65.625H21.25C20.6864 65.625 20.1459 65.3484 19.7474 64.8562C19.3489 64.3639 19.125 63.6962 19.125 63C19.125 62.3038 19.3489 61.6361 19.7474 61.1438C20.1459 60.6516 20.6864 60.375 21.25 60.375H24.4375C25.1472 58.6268 25.5 56.0018 25.5 52.5H8.5C8.5 52.5 0 52.5 0 42V10.5ZM5.9415 6.01125C5.47466 6.41275 5.1022 6.95979 4.862 7.59675C4.49973 8.52139 4.2916 9.52655 4.25 10.5525V42C4.25 43.7062 4.5815 44.6355 4.86625 45.1605C5.16375 45.7118 5.58875 46.1475 6.14975 46.494C6.86603 46.9226 7.64223 47.1774 8.43625 47.2447L8.5425 47.25H59.5C60.8812 47.25 61.6335 46.8405 62.0585 46.4887C62.5253 46.0872 62.8978 45.5402 63.138 44.9033C63.485 44.0184 63.6913 43.0596 63.7457 42.0788L63.75 41.9475V10.5C63.75 8.79375 63.4185 7.8645 63.1337 7.3395C62.8089 6.76264 62.366 6.30251 61.8503 6.006C61.1017 5.55849 60.288 5.30139 59.4575 5.25H8.5C7.11875 5.25 6.3665 5.6595 5.9415 6.01125ZM36.8438 36.8438L40.875 40.875L54.3125 27.4375L40.875 14L36.8438 18.0312L46.25 27.4375L36.8438 36.8438ZM27.4375 14L31.4688 18.0312L22.0625 27.4375L31.4688 36.8438L27.4375 40.875L14 27.4375L27.4375 14Z" fill="black"/>
</svg>
