<svg width="68" height="66" viewBox="0 0 68 66" fill="none" xmlns="http://www.w3.org/2000/svg">
<path fill-rule="evenodd" clip-rule="evenodd" d="M0 10.5C0 10.5 0 0 8.5 0H59.5C59.5 0 68 0 68 10.5V42C68 42 68 52.5 59.5 52.5H42.5C42.5 56.002 42.8528 58.627 43.5625 60.375H46.75C47.3136 60.375 47.8541 60.6514 48.2526 61.144C48.6511 61.6362 48.875 62.3037 48.875 63C48.875 63.6963 48.6511 64.3638 48.2526 64.856C47.8541 65.3486 47.3136 65.625 46.75 65.625H21.25C20.6864 65.625 20.1459 65.3486 19.7474 64.856C19.3489 64.3638 19.125 63.6963 19.125 63C19.125 62.3037 19.3489 61.6362 19.7474 61.144C20.1459 60.6514 20.6864 60.375 21.25 60.375H24.4375C25.1472 58.627 25.5 56.002 25.5 52.5H8.5C8.5 52.5 0 52.5 0 42V10.5ZM5.94153 6.01123C5.47461 6.4126 5.10217 6.95996 4.86206 7.59668C4.49976 8.52148 4.29163 9.52637 4.25 10.5527V42C4.25 43.7061 4.58154 44.6357 4.86621 45.1606C4.96045 45.3354 5.0675 45.4985 5.18762 45.6509C5.33301 45.835 5.49744 46.0034 5.68152 46.1577C5.82556 46.2783 5.98157 46.3901 6.14978 46.4941C6.86609 46.9224 7.64221 47.1772 8.43628 47.2446L8.54248 47.25H59.5C60.8812 47.25 61.6335 46.8403 62.0585 46.4888C62.5254 46.0874 62.8978 45.54 63.1379 44.9033C63.485 44.0186 63.6913 43.0596 63.7457 42.0786L63.75 41.9473V10.5C63.75 8.79395 63.4185 7.86426 63.1338 7.33936C62.8088 6.7627 62.366 6.30273 61.8502 6.00586C61.1017 5.55859 60.2881 5.30127 59.4575 5.25H8.5C7.11877 5.25 6.36646 5.65967 5.94153 6.01123ZM36.8438 36.8438L40.875 40.875L54.3125 27.4375L40.875 14L36.8438 18.0312L46.25 27.4375L36.8438 36.8438ZM27.4375 14L31.4688 18.0312L22.0625 27.4375L31.4688 36.8438L27.4375 40.875L14 27.4375L27.4375 14Z" fill="#DF6E31"/>
</svg>
